<svg width="1440" height="1024" viewBox="0 0 1440 1024" fill="none" xmlns="http://www.w3.org/2000/svg">
<g opacity="0.6">
<g opacity="0.5" filter="url(#filter0_f_3_20)">
<path fill-rule="evenodd" clip-rule="evenodd" d="M1077.28 466.697C1151.98 474.935 1208.96 526.087 1256.35 584.417C1304.49 643.663 1352.75 711.813 1337.15 786.539C1321.3 862.432 1249.21 905.844 1181.39 943.422C1106.12 985.136 1022.51 1039.18 943.725 1004.55C863.269 969.19 841.008 871.294 822.041 785.481C803.299 700.693 786.456 606.367 840.729 538.583C894.919 470.9 991.097 457.193 1077.28 466.697Z" fill="#638CDC"/>
</g>
<g opacity="0.4" filter="url(#filter1_f_3_20)">
<path fill-rule="evenodd" clip-rule="evenodd" d="M387.378 154.735C486.987 146.617 604.263 135.324 666.165 213.783C727.907 292.041 692.041 404.171 658.126 497.905C630.178 575.149 574.789 635.947 500.633 671.284C426.916 706.411 341.925 718.693 268.121 683.749C193.774 648.548 148.715 574.936 128.651 495.161C107.932 412.779 108.89 322.644 160.291 255.012C212.969 185.7 300.608 161.807 387.378 154.735Z" fill="#50A6D7"/>
</g>
</g>
<defs>
<filter id="filter0_f_3_20" x="604" y="264" width="936.138" height="951.609" filterUnits="userSpaceOnUse" color-interpolation-filters="sRGB">
<feFlood flood-opacity="0" result="BackgroundImageFix"/>
<feBlend mode="normal" in="SourceGraphic" in2="BackgroundImageFix" result="shape"/>
<feGaussianBlur stdDeviation="100" result="effect1_foregroundBlur_3_20"/>
</filter>
<filter id="filter1_f_3_20" x="-84" y="-51" width="983.777" height="955.597" filterUnits="userSpaceOnUse" color-interpolation-filters="sRGB">
<feFlood flood-opacity="0" result="BackgroundImageFix"/>
<feBlend mode="normal" in="SourceGraphic" in2="BackgroundImageFix" result="shape"/>
<feGaussianBlur stdDeviation="100" result="effect1_foregroundBlur_3_20"/>
</filter>
</defs>
</svg>
